<!--?xml version="1.0" encoding="us-ascii" standalone="no"?-->
<svg xmlns="http://www.w3.org/2000/svg" contentstyletype="text/css" height="356px" preserveAspectRatio="none"
     style="width:435px;height:356px;background:#FFFFFF;" version="1.1" viewBox="0 0 435 356" width="435px"
     zoomAndPan="magnify"><defs></defs><g><line style="stroke:#181818;stroke-width:0.5;stroke-dasharray:5.0,5.0;" x1="23" x2="23" y1="81.2969" y2="276.0938"></line><line style="stroke:#181818;stroke-width:0.5;stroke-dasharray:5.0,5.0;" x1="132.5" x2="132.5" y1="81.2969" y2="276.0938"></line><line style="stroke:#181818;stroke-width:0.5;stroke-dasharray:5.0,5.0;" x1="273.5" x2="273.5" y1="81.2969" y2="276.0938"></line><line style="stroke:#181818;stroke-width:0.5;stroke-dasharray:5.0,5.0;" x1="397.5" x2="397.5" y1="81.2969" y2="276.0938"></line><text fill="#000000" font-family="sans-serif" font-size="14" lengthAdjust="spacing" textLength="31" x="5" y="77.9951">User</text><ellipse cx="23.5" cy="13.5" fill="#E2E2F0" rx="8" ry="8" style="stroke:#181818;stroke-width:0.5;"></ellipse><path d="M23.5,21.5 L23.5,48.5 M10.5,29.5 L36.5,29.5 M23.5,48.5 L10.5,63.5 M23.5,48.5 L36.5,63.5 " fill="none" style="stroke:#181818;stroke-width:0.5;"></path><text fill="#000000" font-family="sans-serif" font-size="14" lengthAdjust="spacing" textLength="31" x="5" y="288.0889">User</text><ellipse cx="23.5" cy="299.8906" fill="#E2E2F0" rx="8" ry="8" style="stroke:#181818;stroke-width:0.5;"></ellipse><path d="M23.5,307.8906 L23.5,334.8906 M10.5,315.8906 L36.5,315.8906 M23.5,334.8906 L10.5,349.8906 M23.5,334.8906 L36.5,349.8906 " fill="none" style="stroke:#181818;stroke-width:0.5;"></path><rect fill="#E2E2F0" height="30.2969" rx="2.5" ry="2.5" style="stroke:#181818;stroke-width:0.5;" width="80" x="92.5" y="50"></rect><text fill="#000000" font-family="sans-serif" font-size="14" lengthAdjust="spacing" textLength="66" x="99.5" y="69.9951">Frontend</text><rect fill="#E2E2F0" height="30.2969" rx="2.5" ry="2.5" style="stroke:#181818;stroke-width:0.5;" width="80" x="92.5" y="275.0938"></rect><text fill="#000000" font-family="sans-serif" font-size="14" lengthAdjust="spacing" textLength="66" x="99.5" y="295.0889">Frontend</text><rect fill="#E2E2F0" height="30.2969" rx="2.5" ry="2.5" style="stroke:#181818;stroke-width:0.5;" width="76" x="235.5" y="50"></rect><text fill="#000000" font-family="sans-serif" font-size="14" lengthAdjust="spacing" textLength="62" x="242.5" y="69.9951">Backend</text><rect fill="#E2E2F0" height="30.2969" rx="2.5" ry="2.5" style="stroke:#181818;stroke-width:0.5;" width="76" x="235.5" y="275.0938"></rect><text fill="#000000" font-family="sans-serif" font-size="14" lengthAdjust="spacing" textLength="62" x="242.5" y="295.0889">Backend</text><text fill="#000000" font-family="sans-serif" font-size="14" lengthAdjust="spacing" textLength="68" x="360.5" y="77.9951">Database</text><path d="M379.5,29 C379.5,19 397.5,19 397.5,19 C397.5,19 415.5,19 415.5,29 L415.5,55 C415.5,65 397.5,65 397.5,65 C397.5,65 379.5,65 379.5,55 L379.5,29 " fill="#E2E2F0" style="stroke:#181818;stroke-width:1.5;"></path><path d="M379.5,29 C379.5,39 397.5,39 397.5,39 C397.5,39 415.5,39 415.5,29 " fill="none" style="stroke:#181818;stroke-width:1.5;"></path><text fill="#000000" font-family="sans-serif" font-size="14" lengthAdjust="spacing" textLength="68" x="360.5" y="288.0889">Database</text><path d="M379.5,301.3906 C379.5,291.3906 397.5,291.3906 397.5,291.3906 C397.5,291.3906 415.5,291.3906 415.5,301.3906 L415.5,327.3906 C415.5,337.3906 397.5,337.3906 397.5,337.3906 C397.5,337.3906 379.5,337.3906 379.5,327.3906 L379.5,301.3906 " fill="#E2E2F0" style="stroke:#181818;stroke-width:1.5;"></path><path d="M379.5,301.3906 C379.5,311.3906 397.5,311.3906 397.5,311.3906 C397.5,311.3906 415.5,311.3906 415.5,301.3906 " fill="none" style="stroke:#181818;stroke-width:1.5;"></path><polygon fill="#181818" points="120.5,108.4297,130.5,112.4297,120.5,116.4297,124.5,112.4297" style="stroke:#181818;stroke-width:1.0;"></polygon><line style="stroke:#181818;stroke-width:1.0;" x1="23.5" x2="126.5" y1="112.4297" y2="112.4297"></line><text fill="#000000" font-family="sans-serif" font-size="13" lengthAdjust="spacing" textLength="76" x="30.5" y="107.3638">Create todo</text><polygon fill="#181818" points="261.5,137.5625,271.5,141.5625,261.5,145.5625,265.5,141.5625" style="stroke:#181818;stroke-width:1.0;"></polygon><line style="stroke:#181818;stroke-width:1.0;" x1="132.5" x2="267.5" y1="141.5625" y2="141.5625"></line><text fill="#000000" font-family="sans-serif" font-size="13" lengthAdjust="spacing" textLength="98" x="139.5" y="136.4966">Send todo data</text><polygon fill="#181818" points="385.5,166.6953,395.5,170.6953,385.5,174.6953,389.5,170.6953" style="stroke:#181818;stroke-width:1.0;"></polygon><line style="stroke:#181818;stroke-width:1.0;" x1="273.5" x2="391.5" y1="170.6953" y2="170.6953"></line><text fill="#000000" font-family="sans-serif" font-size="13" lengthAdjust="spacing" textLength="100" x="280.5" y="165.6294">Store todo data</text><polygon fill="#181818" points="284.5,195.8281,274.5,199.8281,284.5,203.8281,280.5,199.8281" style="stroke:#181818;stroke-width:1.0;"></polygon><line style="stroke:#181818;stroke-width:1.0;" x1="278.5" x2="396.5" y1="199.8281" y2="199.8281"></line><text fill="#000000" font-family="sans-serif" font-size="13" lengthAdjust="spacing" textLength="83" x="290.5" y="194.7622">Confirmation</text><polygon fill="#181818" points="143.5,224.9609,133.5,228.9609,143.5,232.9609,139.5,228.9609" style="stroke:#181818;stroke-width:1.0;"></polygon><line style="stroke:#181818;stroke-width:1.0;" x1="137.5" x2="272.5" y1="228.9609" y2="228.9609"></line><text fill="#000000" font-family="sans-serif" font-size="13" lengthAdjust="spacing" textLength="117" x="149.5" y="223.895">Send confirmation</text><polygon fill="#181818" points="34.5,254.0938,24.5,258.0938,34.5,262.0938,30.5,258.0938" style="stroke:#181818;stroke-width:1.0;"></polygon><line style="stroke:#181818;stroke-width:1.0;" x1="28.5" x2="131.5" y1="258.0938" y2="258.0938"></line><text fill="#000000" font-family="sans-serif" font-size="13" lengthAdjust="spacing" textLength="85" x="40.5" y="253.0278">Todo created</text><!--SRC=[LO_13S8m34Nldi8Bi40F76Z50i00nZ5IX8Whr_kBE6gZz9J8_-NvXzZLyBM9mKhccVDAnV5kMbnAEWrlnD-O9N9wqoQux1U04E3bsj_XXBC9kQ1hKkZZYkoMIZpYY1p324TGcKCSKEqd0zMZashMyids8yzQHj7GfstZaHjRjGzC-8mzt9gdFm00]--></g></svg>